<svg id="Layer_2" data-name="Layer 2" xmlns="http://www.w3.org/2000/svg" viewBox="0 0 77.37 142.55">
  <defs>
    <style>
      .cls-1 {
        fill: #f2da91;
      }

      .cls-2 {
        fill: #ffcd94;
      }

      .cls-3 {
        fill: #191970;
      }

      .cls-4 {
        fill: #fff;
      }

      .cls-5 {
        fill: #f9af6b;
      }

      .cls-6 {
        fill: #ef1111;
      }

      .cls-7 {
        fill: #ff0b0b;
      }

      .cls-8 {
        fill: #af0404;
      }

      .cls-9 {
        fill: #f9f9f9;
      }

      .cls-10 {
        fill: #67b7c9;
      }

      .cls-11 {
        fill: #d36683;
      }
    </style>
  </defs>
  <title>Trump_version1</title>
  <polygon class="cls-1" points="63.51 34.66 63.51 32 60.2 32 60.2 45.84 63.51 45.84 63.51 34.66"/>
  <polygon class="cls-1" points="17.5 35.06 17.5 32.4 14.19 32.4 14.19 46.24 17.5 46.24 17.5 35.06"/>
  <circle class="cls-1" cx="19.34" cy="20.96" r="7.79"/>
  <path class="cls-2" d="M28.27,69.82V51.11s-10.46-4.12,0-10.47V30.18H71.08V41s12.36,4.44,0,9V69.82S46.35,73.3,28.27,69.82Z" transform="translate(-10.77 -16.05)"/>
  <path class="cls-3" d="M28.27,69.82V98.35a68.44,68.44,0,0,0,5.39,21.56v31.71s-1.9,3.81-5.39,4.76c0,0-6.34.32-6.34,2.22H40.64V119.28h19V158.6h19s-1.27-2.86-6.34-2.54c0,0-4.76-.95-5.71-4.76,0,0,0-32.34-.32-32.34H66a71.07,71.07,0,0,0,5.07-21.88V69.82S42.22,73.3,28.27,69.82Z" transform="translate(-10.77 -16.05)"/>
  <polygon class="cls-4" points="35.59 55.1 30.61 62.05 30.61 82.58 38.81 89.48 46.16 82.14 46.16 58.92 43.57 55.1 35.59 55.1"/>
  <path class="cls-3" d="M28.56,71.37v6.56s-17.3,15.33-1.32,23.65l-5,10.08L13,98.3s-5-4.82,0-9.42Z" transform="translate(-10.77 -16.05)"/>
  <path class="cls-3" d="M71,70.71v7s16.86,15.54,0,23.86l5,10.73L86.29,97.64a7.24,7.24,0,0,0,0-9.63Z" transform="translate(-10.77 -16.05)"/>
  <g>
    <path class="cls-2" d="M33.08,100.06s-14-1.22-10.63,16.4c0,0,2.43,3.34,7.29,0,0,0,2.07-1.19.5-1.84,0,0,4.85.09,2.84-3.43,0,0,5.22-.18,1.88-3.79C35,107.4,41.85,104,33.08,100.06Z" transform="translate(-10.77 -16.05)"/>
    <polygon class="cls-5" points="20.11 88.12 24.3 91.27 24.15 91.47 19.94 88.26 20.11 88.12"/>
    <polygon class="cls-5" points="18.25 91.95 22.43 95.1 22.29 95.29 18.08 92.08 18.25 91.95"/>
    <polygon class="cls-5" points="15.05 95.77 19.52 98.52 19.39 98.73 14.9 95.92 15.05 95.77"/>
  </g>
  <g>
    <path class="cls-2" d="M64.14,101.25s17.14-3,11.17,15.82c0,0-6.63,3.68-7.86-1.86,0,0-3.5.37-2.56-3.43,0,0-5.21,0-2.18-4.47C62.71,107.31,57.5,103.9,64.14,101.25Z" transform="translate(-10.77 -16.05)"/>
    <polygon class="cls-5" points="60.55 95.72 56.72 99.3 56.56 99.12 60.45 95.53 60.55 95.72"/>
    <polygon class="cls-5" points="58.22 92.44 54.24 95.85 54.08 95.67 58.12 92.25 58.22 92.44"/>
    <polygon class="cls-5" points="56.76 89.14 52.03 91.39 51.92 91.18 56.72 88.93 56.76 89.14"/>
  </g>
  <path class="cls-4" d="M28.27,69.82v3.64a30.53,30.53,0,0,0,10.78,8.15l7.42-10.34h6.26l7,10.34s8.3-3.5,11.36-8.3V69.82S42.83,72,28.27,69.82Z" transform="translate(-10.77 -16.05)"/>
  <path class="cls-6" d="M157.13,93.63" transform="translate(-10.77 -16.05)"/>
  <polygon class="cls-7" points="30.61 62.05 34.36 65.56 30.61 82.58 38.81 89.48 46.16 82.14 42.04 65.56 46.16 61.42 41.56 54.66 34.04 54.73 30.61 62.05"/>
  <polygon class="cls-8" points="34.26 65.46 42.18 65.42 42.04 65.56 42.09 65.78 34.31 65.78 34.36 65.56 34.26 65.46"/>
  <g>
    <circle class="cls-9" cx="30.34" cy="25.47" r="3.42"/>
    <circle class="cls-10" cx="30.34" cy="25.53" r="2.21"/>
    <circle cx="30.34" cy="25.53" r="1.4"/>
    <circle class="cls-4" cx="31.39" cy="24.49" r="0.36"/>
  </g>
  <g>
    <circle class="cls-9" cx="47.15" cy="25.47" r="3.37"/>
    <circle class="cls-10" cx="47.15" cy="25.53" r="2.17"/>
    <circle cx="47.15" cy="25.53" r="1.38"/>
    <circle class="cls-4" cx="48.18" cy="24.5" r="0.35"/>
  </g>
  <path class="cls-5" d="M28.17,42.65A3.42,3.42,0,0,0,25,46.56l.85-.22s-.68-2.21,2.33-3Z" transform="translate(-10.77 -16.05)"/>
  <path class="cls-5" d="M75,45.88a3.41,3.41,0,0,0-3.87-3.22l.22.86s2.21-.66,3,2.36Z" transform="translate(-10.77 -16.05)"/>
  <path class="cls-5" d="M49.05,45.89s-1.58-.2-1.89,1.75V50s-.26,2.41,1.89,2.52c0,0,1.84.16,2.1-2.31V47.69A1.88,1.88,0,0,0,49.05,45.89Z" transform="translate(-10.77 -16.05)"/>
  <circle cx="38.22" cy="45.84" r="5.76"/>
  <path class="cls-1" d="M44.42,35.22l-6.32-1S36,35,37.75,36.38l6.32,1S46.28,36.67,44.42,35.22Z" transform="translate(-10.77 -16.05)"/>
  <path class="cls-1" d="M60.49,34.25l-6.3.94s-1.74,1.34.33,2.17l6.29-1S62.69,35.06,60.49,34.25Z" transform="translate(-10.77 -16.05)"/>
  <path class="cls-11" d="M44.34,65.26s4.93-2.79,9.3,0a5.23,5.23,0,0,1-2.15,1.8,5.44,5.44,0,0,1-4.43.24A5.6,5.6,0,0,1,44.34,65.26Z" transform="translate(-10.77 -16.05)"/>
  <path class="cls-4" d="M43.86,59.28H54.12A5.56,5.56,0,0,0,49,56.13,5.73,5.73,0,0,0,43.86,59.28Z" transform="translate(-10.77 -16.05)"/>
  <path class="cls-1" d="M67.38,16.06h-38s-7.73,1.65-7,8.45S28.55,33,28.55,33H68.82s8-.43,6.66-9S67.38,16.06,67.38,16.06Z" transform="translate(-10.77 -16.05)"/>
  <circle class="cls-1" cx="60.31" cy="19.08" r="6.45"/>
</svg>
