<svg id="Layer_1" data-name="Layer 1" xmlns="http://www.w3.org/2000/svg" viewBox="0 0 233.18 429">
  <defs>
    <style>
      .cls-1 {
        fill: #82db2c;
      }

      .cls-2 {
        fill: #fc2956;
      }

      .cls-3 {
        fill: #71a4ff;
      }

      .cls-4 {
        fill: #fff53e;
      }

      .cls-5 {
        fill: #ffa733;
      }

      .cls-6 {
        fill: #e54ced;
      }

      .cls-7 {
        fill: #4306ff;
      }

      .cls-8 {
        fill: #fcf73d;
      }

      .cls-9 {
        fill: #49cc42;
      }

      .cls-10 {
        fill: #c32cdd;
      }

      .cls-11 {
        fill: #e3e838;
      }

      .cls-12 {
        fill: #e80f2e;
      }

      .cls-13 {
        fill: #f98b1c;
      }

      .cls-14 {
        fill: #a036ea;
      }

      .cls-15 {
        fill: #e07ec7;
      }

      .cls-16 {
        fill: #2497ed;
      }

      .cls-17 {
        fill: #fc6a30;
      }

      .cls-18 {
        fill: #55e0e0;
      }

      .cls-19 {
        fill: #464f4f;
      }

      .cls-20 {
        fill: #919b9b;
      }

      .cls-21 {
        fill: #23aeb5;
      }

      .cls-22 {
        fill: #ef22ef;
      }

      .cls-23 {
        fill: #fff;
      }

      .cls-24 {
        fill: #020202;
      }

      .cls-25 {
        fill: #9cadad;
      }

      .cls-26 {
        fill: #d63880;
      }

      .cls-27 {
        fill: #f4ef40;
      }

      .cls-28 {
        fill: #4343d1;
      }

      .cls-29 {
        fill: #ed2b2b;
      }

      .cls-30 {
        fill: #f4a8e2;
      }
    </style>
  </defs>
  <title>Unicorn_version1</title>
  <path class="cls-1" d="M123.5,296.5s-48-80-74,0c0,0-8,48,0,79,0,0,18,49-30,16,0,0,32,51,70,28,0,0,13-10,19-21C108.5,398.5,135.5,346.5,123.5,296.5Z" transform="translate(-17.84 -15)"/>
  <path class="cls-2" d="M93,274.39s-39-30.45-39,60.92c0,0,3.54,66.58-20.54,20.54,0,0,5,73,45.33,0C78.83,355.85,85.21,346.64,93,274.39Z" transform="translate(-17.84 -15)"/>
  <path class="cls-3" d="M82.09,284.83S42.78,353.18,48.54,394.94c0,0,1.62-22.31,12.58-28.77,0,0,2.72,25.48-4.49,49.44L66,399.43s1.09,15.77-1.4,25.46C64.57,424.89,97.18,310.4,82.09,284.83Z" transform="translate(-17.84 -15)"/>
  <path class="cls-4" d="M88.35,276.78S66.53,260.39,72.45,383.6c0,0,5,34.11-17.8-2.65,0,0,14.94,55.81,37.54,12.67C92.19,393.62,121,301.86,88.35,276.78Z" transform="translate(-17.84 -15)"/>
  <path class="cls-5" d="M81.36,275.64s-18.75,37.14-17.1,74.23c0,0,.35-7.4,8.48-19.12,0,0,7.51,14.64-3.41,32.52C69.33,363.27,100.94,317.53,81.36,275.64Z" transform="translate(-17.84 -15)"/>
  <path class="cls-6" d="M141.59,292.15s-36.33-46.92-36.33,81c0,0,4.54,33.31-16.65-6.05,0,0-3.78,6.81,0,13.62,0,0-7.57.76-12.11-9.84,0,0,4.54,53,32.54,39.36,0,0,9.84,2.27,25-34.06C134,376.16,149.91,323.18,141.59,292.15Z" transform="translate(-17.84 -15)"/>
  <path class="cls-7" d="M100.84,290.51s-19.17,72.22,4.32,115C105.16,405.47,120.93,385.29,100.84,290.51Z" transform="translate(-17.84 -15)"/>
  <path class="cls-8" d="M85,183s0,13-6,7c0,0,12.49,24.6,13.75-10.7Z" transform="translate(-17.84 -15)"/>
  <polygon class="cls-9" points="89.1 157.58 89.66 172.6 92.66 160.5 95.66 195.5 98.66 163.5 104.66 179.5 107.66 158.5 110.66 174.5 114.94 155 88.36 141.67 89.1 157.58"/>
  <path class="cls-10" d="M116.35,163.65l4.15,17.87s0-5,2-7c0,0,4,1,6,7,0,0-2.43-12,4.29-11.5S116.35,163.65,116.35,163.65Z" transform="translate(-17.84 -15)"/>
  <path class="cls-11" d="M106.2,156.67s9.12,21.76,4.71,27.3c0,0,8.3-12.18,5.44-20.32Z" transform="translate(-17.84 -15)"/>
  <path class="cls-12" d="M103.25,90s-16.69,103.62-33,75.61c0,0,6.66,28.1,27.27-6.88,0,0-11.18,55.9-18.4,39.95,0,0,2.56,27,27.27-23.57,0,0-1.08,20.8,6.44,12.23,0,0-7-.08-2.77-26.19Z" transform="translate(-17.84 -15)"/>
  <path class="cls-13" d="M133.5,85.72S57,6.3,55.15,87.68c0,0,0,108.84-18.91,53.93,0,0-1.8,23.53,4.5,25.49,0,0,9.91,7.85,18.91-8.82,0,0,3.61,42.16-7.2,31.37,0,0,0,10.79,16.21,6.87,0,0,12.61-2,9.91-17.65,0,0,11.7,0,10.8,10.78,0,0,9.91-11.76,9-18.63C98.38,171,93,83.76,133.5,85.72Z" transform="translate(-17.84 -15)"/>
  <path class="cls-14" d="M83.23,135.33C48,177.17,42.5,127.5,42.5,127.5c21,42,27-37,27-37,6-37,34.18-17.5,34.18-17.5Z" transform="translate(-17.84 -15)"/>
  <path class="cls-15" d="M113,72.36S99.09,55.47,60.18,142.21c0,0-13.24,26.23-18.69,31.61,0,0,12.49-4.58,18.33-10.89,0,0-9.58,20.1-1.62,31.16,0,0,1.33-28,13.43-31.65,0,0,.8,8-2.06,12.31C69.57,174.75,140.82,86.35,113,72.36Z" transform="translate(-17.84 -15)"/>
  <path class="cls-16" d="M120.5,72.5s-31-22-34,72c0,0-1,60-10,21,0,0-3,23,6,19,0,0,7,0,12-14C94.5,170.5,107.5,65.5,120.5,72.5Z" transform="translate(-17.84 -15)"/>
  <path class="cls-17" d="M93.5,127.5s-9,36,0,54c0,0-3-13,4-15,0,0,8,19,3,33C100.5,199.5,119.5,157.5,93.5,127.5Z" transform="translate(-17.84 -15)"/>
  <rect class="cls-18" x="61.59" y="163.56" width="119.28" height="189.43" rx="59.64" ry="59.64"/>
  <g>
    <path class="cls-18" d="M138.37,427.48V355.6c0-9.13-6.51-16.53-14.55-16.53s-14.55,7.4-14.55,16.53v71.88c0,.27,0,.55,0,.82h29C138.35,428,138.37,427.75,138.37,427.48Z" transform="translate(-17.84 -15)"/>
    <path class="cls-19" d="M109.3,428.3C109.69,437,116,444,123.82,444s14.13-7,14.52-15.7Z" transform="translate(-17.84 -15)"/>
    <rect class="cls-18" x="129.99" y="324.07" width="29.1" height="104.93" rx="14.55" ry="14.55"/>
    <rect class="cls-20" x="91.43" y="408.34" width="29.1" height="4.96"/>
    <rect class="cls-20" x="129.99" y="408.34" width="29.1" height="4.96"/>
    <path class="cls-19" d="M147.87,428.3c.38,8.74,6.72,15.7,14.51,15.7s14.14-7,14.52-15.7Z" transform="translate(-17.84 -15)"/>
  </g>
  <path class="cls-18" d="M25.41,223.71l55.52,34.51c7,4.38,15.9,1.44,19.76-6.56s1.27-18-5.78-22.43L39.38,194.72l-.66-.36L24.79,223.28C25,223.42,25.19,223.58,25.41,223.71Z" transform="translate(-17.84 -15)"/>
  <path class="cls-19" d="M38.72,194.36c-6.93-3.82-15.35-.84-19.09,6.92s-1.41,17.42,5.16,22Z" transform="translate(-17.84 -15)"/>
  <path class="cls-18" d="M246.83,173.21h0a18.13,18.13,0,0,1-.13,23.36l-45,50.52a13.36,13.36,0,0,1-20.58-.14h0a18.16,18.16,0,0,1,.14-23.37l45-50.52A13.36,13.36,0,0,1,246.83,173.21Z" transform="translate(-17.84 -15)"/>
  <polygon class="cls-20" points="6.93 208.31 20.9 179.32 24.73 181.7 10.76 210.69 6.93 208.31"/>
  <polygon class="cls-20" points="208.93 157.48 229.37 180.99 226.27 184.48 205.82 160.97 208.93 157.48"/>
  <path class="cls-19" d="M247.19,196a18.16,18.16,0,0,0-.36-22.75,13.32,13.32,0,0,0-20-.7Z" transform="translate(-17.84 -15)"/>
  <circle class="cls-18" cx="121.66" cy="106.5" r="48.5"/>
  <path class="cls-21" d="M182.44,127.07c-12.51,11.52-22.86,23.79-35.34,35.32a27,27,0,1,0,35.34-35.32Z" transform="translate(-17.84 -15)"/>
  <rect class="cls-18" x="115.16" y="153" width="12" height="20"/>
  <ellipse cx="167.02" cy="161.89" rx="4.08" ry="2.34" transform="translate(-51.7 29.62) rotate(-13.83)"/>
  <path class="cls-22" d="M101,106.17s5.27-66.48-19.79,51.28c0,0,3.61-13.95,7.47-18.47,0,0,3.78,22.25-4.33,27.85,0,0-6.06,4-3.15-4,0,0-6.89,7.88-1.12,7.79,0,0,5.49,1.2,9.07-2,0,0,3-.68,7-8.52,0,0,2.21-2.2,2.37-10.87C98.51,149.16,100.4,114.08,101,106.17Z" transform="translate(-17.84 -15)"/>
  <ellipse cx="184.02" cy="145.89" rx="4.08" ry="2.34" transform="translate(-67.1 157.85) rotate(-45)"/>
  <g>
    <circle class="cls-23" cx="110.42" cy="106.74" r="5.97"/>
    <circle class="cls-24" cx="110.42" cy="106.74" r="2.56"/>
  </g>
  <g>
    <circle class="cls-23" cx="135.42" cy="94.74" r="5.97"/>
    <circle class="cls-24" cx="135.42" cy="94.74" r="2.56"/>
  </g>
  <polygon class="cls-18" points="146.46 49.13 134.53 61.78 145.26 66.48 146.46 49.13"/>
  <path class="cls-8" d="M113.5,80.5s10-50,56,0l16,16s8,9,17-7a18.1,18.1,0,0,1-3,12l5-3a17,17,0,0,1-14,13s-26,4-40-9C150.5,102.5,130.5,78.5,113.5,80.5Z" transform="translate(-17.84 -15)"/>
  <path class="cls-9" d="M120.91,72.36s32.49-8.6,46.24,12.87l4.44,6.42s4.28,3.27,7.55-1c0,0,2.3-4.55-4.55-2.31,0,0,2.57-5.51,6.42-4.44,0,0,4.13.11,4.71,5.46-.8,5.42-10.89,15.16-15.42,14.4-5.23-.89-11.27-1.27-18.46-8.25,0,0-12.74-13.92-18.36-12.37,0,0-8.62,4.86-21.57-.81C111.91,82.32,114.05,74.61,120.91,72.36Z" transform="translate(-17.84 -15)"/>
  <polygon class="cls-25" points="120.76 0 115.36 78 126.16 78 120.76 0"/>
  <path class="cls-26" d="M100.21,83.49S82,162,67.11,146.91c0,0,5.09,18.24,26-3C93.14,143.92,119,114.24,100.21,83.49Z" transform="translate(-17.84 -15)"/>
  <path class="cls-27" d="M101,81.23s-7.09,47.53-15.61,30.51c0,0-2.13,12.77,5.68,9.93S101,81.23,101,81.23Z" transform="translate(-17.84 -15)"/>
  <polygon class="cls-18" points="76.36 62.41 83.8 78.13 92.08 69.85 76.36 62.41"/>
  <path class="cls-10" d="M110.09,83s22.19-1.69,38.13,14.29c0,0,3.13,2.62,7.26,9.79,0,0-15.21-14.3-20.71-10.91,0,0,1.72,6.23,5.33,7.65C140.1,103.81,112.69,95.82,110.09,83Z" transform="translate(-17.84 -15)"/>
  <path class="cls-28" d="M113.5,83.5s-13-2-16,14c0,0-1,21-6,16,0,0-2,8,3,5,0,0,6-3,5-5,0,0-1,10-5,11,0,0,12-2,12-9S109.5,83.5,113.5,83.5Z" transform="translate(-17.84 -15)"/>
  <path class="cls-29" d="M107.5,85.5s5-13,31,0l4,2s4,3,6-3c0,0,2,8-3,9,0,0-6,2-11-2C134.5,91.5,123.5,79.5,107.5,85.5Z" transform="translate(-17.84 -15)"/>
  <rect class="cls-30" x="90.16" y="233" width="63" height="91" rx="31.5" ry="31.5"/>
</svg>
